<?xml version="1.0" encoding="utf-8"?>
<!-- Generator: Adobe Illustrator 18.1.1, SVG Export Plug-In . SVG Version: 6.00 Build 0)  -->
<!DOCTYPE svg PUBLIC "-//W3C//DTD SVG 1.1//EN" "http://www.w3.org/Graphics/SVG/1.1/DTD/svg11.dtd">
<svg version="1.1" id="Layer_1" xmlns="http://www.w3.org/2000/svg" xmlns:xlink="http://www.w3.org/1999/xlink" x="0px" y="0px"
	 viewBox="0 0 288.8 274.6" enable-background="new 0 0 288.8 274.6" xml:space="preserve">
<g>
	<path fill="#FFFFFF" d="M288.8,135.2c-0.1-0.4-0.3-1.1-0.5-1.7c-5-19.9-14.4-37.6-28.3-52.7c-26-28.4-59.1-42.9-96.8-46.6
		C114.1,29.3,70.2,42.2,34.6,78C19,93.7,8.8,112.6,3.5,134.1C3,135.9,4.2,139,5.6,140c1.4,1,4.4,0.5,6.3-0.3c1.9-0.8,3.3-2.7,5-4.1
		c18.1-15.1,38.2-16.1,55.9-1.7c6.3,5.1,11.4,12,16.2,18.7c5.5,7.7,8.7,8,13.8,0.1c3.1-4.9,6.6-9.7,10.5-13.9
		c18.2-19.5,45-20.1,63.8-1.2c4.9,4.9,8.8,10.8,12.8,16.5c4.1,5.8,7.9,6,11.9,0c2.7-4,5.1-8.2,8.2-11.9c17.2-20,43.7-26.9,67-4.9
		c1.2,1.1,2.5,2.3,3.9,3.1C284.7,142.4,289,139.7,288.8,135.2z M156,130.3c-5.2,0-10.9-0.2-16.6-0.1c-3.3,0.1-4.6,1.7-4.6,5.4
		c0.2,19,0.1,38,0.1,57c0,12.8,0.2,25.7-0.1,38.5c-0.3,14.7-15.3,25.6-28.6,20.7c-9.3-3.5-14.7-10.5-15.4-20.7
		c-0.5-6.6-5.3-11.2-11.3-11c-5.8,0.2-10.5,5.1-10.6,11.1c-0.3,17.1,12.7,35.4,29.1,41c28.6,9.7,57.6-9.5,58.5-40.1
		c1-33.1,0.2-66.3,0.2-99.4C156.8,132.3,156.6,131.9,156,130.3z M156.8,27.5c0-6.2,0.3-12-0.1-17.8c-0.3-5.2-4.8-9.2-9.8-9.7
		c-5.1-0.5-10.6,2.7-11.2,7.9c-0.8,6.4-0.2,13.1-0.2,19.6C142.6,27.5,149.4,27.5,156.8,27.5z"/>
	<path d="M288.8,135.2c0.1,4.5-4.1,7.2-8,5.2c-1.4-0.8-2.7-1.9-3.9-3.1c-23.2-21.9-49.8-15.1-67,4.9c-3.1,3.6-5.6,7.9-8.2,11.9
		c-4,5.9-7.8,5.8-11.9,0c-4-5.7-7.9-11.6-12.8-16.5c-18.8-18.9-45.6-18.3-63.8,1.2c-3.9,4.2-7.4,9-10.5,13.9
		c-5.1,7.9-8.3,7.6-13.8-0.1c-4.8-6.7-9.9-13.6-16.2-18.7c-17.7-14.4-37.9-13.4-55.9,1.7c-1.7,1.4-3.1,3.3-5,4.1
		c-1.9,0.8-4.8,1.3-6.3,0.3c-1.4-1-2.6-4.1-2.1-5.9C8.8,112.6,19,93.7,34.6,78c35.6-35.8,79.5-48.7,128.7-43.8
		c37.6,3.7,70.8,18.2,96.8,46.6c13.8,15.1,23.3,32.8,28.3,52.7C288.5,134.1,288.7,134.7,288.8,135.2z"/>
	<path d="M156,130.3c0.6,1.7,0.8,2,0.8,2.3c0,33.1,0.8,66.3-0.2,99.4c-0.9,30.6-29.9,49.8-58.5,40.1c-16.4-5.6-29.4-23.8-29.1-41
		c0.1-6,4.8-10.9,10.6-11.1c5.9-0.2,10.8,4.3,11.3,11c0.7,10.3,6.1,17.3,15.4,20.7c13.3,4.9,28.2-6,28.6-20.7
		c0.3-12.8,0.1-25.6,0.1-38.5c0-19,0.1-38-0.1-57c0-3.7,1.3-5.3,4.6-5.4C145.1,130,150.8,130.2,156,130.3z"/>
	<path d="M156.8,27.5c-7.4,0-14.2,0-21.3,0c0-6.5-0.6-13.2,0.2-19.6c0.6-5.1,6.1-8.3,11.2-7.9c5,0.5,9.5,4.5,9.8,9.7
		C157.1,15.5,156.8,21.3,156.8,27.5z"/>
</g>
</svg>
