<?xml version="1.0" encoding="utf-8"?>
<!-- Generator: Adobe Illustrator 18.1.1, SVG Export Plug-In . SVG Version: 6.00 Build 0)  -->
<!DOCTYPE svg PUBLIC "-//W3C//DTD SVG 1.1//EN" "http://www.w3.org/Graphics/SVG/1.1/DTD/svg11.dtd">
<svg version="1.1" id="Layer_1" xmlns="http://www.w3.org/2000/svg" xmlns:xlink="http://www.w3.org/1999/xlink" x="0px" y="0px"
	 viewBox="0 0 395.8 263.4" enable-background="new 0 0 395.8 263.4" xml:space="preserve">
<g>
	<path fill="#FFFFFF" d="M60.7,88.5c-11.2,20.2-13.9,28.7-16.1,51.5c-0.3,3.5-1.3,6-4.3,8.4c-9.7,7.7-9.9,23.6-0.5,31.7
		c2.5,2.2,3,4.1,2.5,7.2c-3.2,22.7-6.2,45.5-9.2,68.3c-0.7,5.1,1.4,7.7,6.6,7.7c10.2,0.1,20.3,0.1,30.5,0c5.1-0.1,7.2-2.6,6.5-7.8
		c-3-22.9-6.1-45.9-9.3-68.8c-0.4-2.8,0.1-4.5,2.3-6.4c8.9-7.8,10.1-22.6,1.5-30.2c-4.8-4.2-5.3-8.1-4.3-13.4
		c0.4-2.3,0.6-4.6,1.1-6.9c2.1-10.2,4.9-20,11-28.6c2.9-4.1,5.9-5.5,11.2-3.8c34.1,11.1,68.4,21.9,102.7,32.6c3.1,1,7,1,10.1,0
		c56.4-17.5,112.6-35.2,168.9-52.9c5.7-1.8,11.4-3.7,17.1-5.5c3.3-1,6.7-1.9,6.8-6.1c0.1-4.6-3.6-5.4-7-6.4c-0.2,0-0.3-0.1-0.5-0.2
		C326.4,39.4,264.5,20,202.6,0.7c-2.9-0.9-6.7-0.9-9.6,0.1C139.8,17.3,86.6,34,33.4,50.7c-9,2.8-18.1,5.8-27.1,8.6
		c-3.1,1-6.3,2-6.3,6c0,4.3,3.2,5.4,6.6,6.2c1,0.3,1.9,0.6,2.9,0.9C26.4,77.7,43.4,83.1,60.7,88.5z M304.7,121.4
		c-1.9,0.5-3.6,0.8-5.1,1.3c-29.8,9.4-59.7,18.7-89.4,28.3c-8.4,2.7-16.4,2.7-24.9-0.1c-25.5-8.3-51-16.2-76.6-24.3
		c-5.8-1.8-11.6-3.5-17.7-5.4c-0.9,16-1,31.4-2.8,46.5c-1.7,14.3,4.2,23.6,15.7,30.6c22,13.3,46.5,17.5,71.5,19.9
		c20.8,2,41.6,1.2,62.2-2c19.2-3,37.9-7.5,54.5-18.1c8.2-5.2,15.9-11.5,15.6-22.3C307.2,157.9,305.8,139.8,304.7,121.4z"/>
	<path d="M60.7,88.5C43.4,83.1,26.4,77.7,9.4,72.4c-1-0.3-1.9-0.6-2.9-0.9c-3.3-0.9-6.6-2-6.6-6.2c0-4,3.2-5,6.3-6
		c9.1-2.8,18.1-5.7,27.1-8.6C86.6,34,139.8,17.3,193,0.7c2.9-0.9,6.7-1,9.6-0.1C264.5,20,326.4,39.4,388.3,58.9
		c0.2,0,0.3,0.1,0.5,0.2c3.4,1,7.1,1.8,7,6.4c-0.1,4.3-3.6,5.1-6.8,6.1c-5.7,1.8-11.4,3.7-17.1,5.5
		c-56.3,17.7-112.6,35.4-168.9,52.9c-3.1,1-7,0.9-10.1,0c-34.3-10.7-68.6-21.4-102.7-32.6c-5.3-1.7-8.3-0.4-11.2,3.8
		c-6.1,8.6-8.9,18.5-11,28.6c-0.5,2.3-0.6,4.6-1.1,6.9c-1,5.2-0.5,9.2,4.3,13.4c8.7,7.6,7.4,22.4-1.5,30.2c-2.2,1.9-2.6,3.6-2.3,6.4
		c3.2,22.9,6.3,45.9,9.3,68.8c0.7,5.1-1.4,7.7-6.5,7.8c-10.2,0.1-20.3,0.1-30.5,0c-5.1-0.1-7.2-2.6-6.6-7.7c3-22.8,6-45.5,9.2-68.3
		c0.4-3.1,0-5-2.5-7.2c-9.4-8.1-9.1-24,0.5-31.7c3-2.4,3.9-4.9,4.3-8.4C46.8,117.1,49.5,108.7,60.7,88.5z"/>
	<path d="M304.7,121.4c1.1,18.4,2.5,36.5,3,54.6c0.3,10.7-7.4,17.1-15.6,22.3c-16.6,10.6-35.4,15.1-54.5,18.1
		c-20.6,3.2-41.4,4-62.2,2c-25-2.4-49.5-6.6-71.5-19.9c-11.5-7-17.4-16.3-15.7-30.6c1.8-15.2,1.9-30.5,2.8-46.5
		c6.1,1.9,11.9,3.6,17.7,5.4c25.5,8,51.1,16,76.6,24.3c8.4,2.8,16.4,2.8,24.9,0.1c29.8-9.6,59.6-18.9,89.4-28.3
		C301.2,122.2,302.8,121.9,304.7,121.4z"/>
</g>
</svg>
